# xmcd
#
# Track frame offsets:
#	150
#	12734
#	27456
#	41584
#	57033
#	68757
#	81976
#	94366
#	102532
#	114507
#	127046
#	138533
#	147873
#	162054
#	172186
#	185170
#	197433
#	208450
#	218817
#	229799
#
# Disc length: 3227 seconds
#
# Revision: 0
# Processed by: cddbd v1.5.2PL0 Copyright (c) Steve Scherf et al.
# Submitted via: EasyCDDAExtractor 12.0.2.1
#
DISCID=360c9914
DTITLE=Various Artist - The Rat Pack 100 Hits Cd 4
DYEAR=2006
DGENRE=Blues
TTITLE0=Sammy Davis Jr - Be- Bop The Beguine
TTITLE1=Frank Sinatra - The Song Is For You
TTITLE2=Dean Martin - Blue Moon
TTITLE3=Frank Sinatra - The Way You Look Tonight
TTITLE4=Dean Martin - Dreamy Old New England Moon
TTITLE5=Frank Sinatra - Young At Heart
TTITLE6=Sammy Davis Jr - Here Lies Love
TTITLE7=Dean Martin - I Feel A Song Coming On
TTITLE8=Frank Sinatra - American Beauty Rose
TTITLE9=Dean Martin - If
TTITLE10=Sammy Davis Jr - Laura
TTITLE11=Dean Martin - Luna Mezzo Mare
TTITLE12=Frank Sinatra - I Got Plenty O' Nuttin'
TTITLE13=Dean Martin - Once In Love With Amy
TTITLE14=Frank Sinatra - Little Girl Blue
TTITLE15=Dean Martin - The Night Is Young And You Are So Beautiful
TTITLE16=Frank Sinatra - Get Happy
TTITLE17=Sammy Davis Jr - Wagon Wheels
TTITLE18=Frank Sinatra - I'm Gonna Sit Right Down And Write Myself A Letter
TTITLE19=Frank Sinatra - How About You?
EXTD=
EXTT0=
EXTT1=
EXTT2=
EXTT3=
EXTT4=
EXTT5=
EXTT6=
EXTT7=
EXTT8=
EXTT9=
EXTT10=
EXTT11=
EXTT12=
EXTT13=
EXTT14=
EXTT15=
EXTT16=
EXTT17=
EXTT18=
EXTT19=
PLAYORDER=
